<?xml version="1.0" encoding="UTF-8" standalone="no"?>
<svg
   xmlns:dc="http://purl.org/dc/elements/1.1/"
   xmlns:cc="http://creativecommons.org/ns#"
   xmlns:rdf="http://www.w3.org/1999/02/22-rdf-syntax-ns#"
   xmlns:svg="http://www.w3.org/2000/svg"
   xmlns="http://www.w3.org/2000/svg"
   xmlns:sodipodi="http://sodipodi.sourceforge.net/DTD/sodipodi-0.dtd"
   xmlns:inkscape="http://www.inkscape.org/namespaces/inkscape"
   version="1.0"
   width="1280.000000pt"
   height="991.000000pt"
   viewBox="0 0 1280.000000 991.000000"
   preserveAspectRatio="xMidYMid meet"
   id="svg2"
   inkscape:version="0.91 r13725"
   sodipodi:docname="htrc-beta-sticker.svg">
  <metadata
     id="metadata12">
    <rdf:RDF>
      <cc:Work
         rdf:about="">
        <dc:format>image/svg+xml</dc:format>
        <dc:type
           rdf:resource="http://purl.org/dc/dcmitype/StillImage" />
        <dc:title></dc:title>
      </cc:Work>
    </rdf:RDF>
  </metadata>
  <defs
     id="defs10" />
  <sodipodi:namedview
     pagecolor="#ffffff"
     bordercolor="#666666"
     borderopacity="1"
     objecttolerance="10"
     gridtolerance="10"
     guidetolerance="10"
     inkscape:pageopacity="0"
     inkscape:pageshadow="2"
     inkscape:window-width="1540"
     inkscape:window-height="904"
     id="namedview8"
     showgrid="false"
     inkscape:zoom="0.18"
     inkscape:cx="783.33333"
     inkscape:cy="622.15278"
     inkscape:window-x="-7"
     inkscape:window-y="3"
     inkscape:window-maximized="0"
     inkscape:current-layer="g4" />
  <g
     transform="matrix(0.1,0,0,-0.1,22.222222,1031)"
     id="g4"
     style="fill:#000000;stroke:none">
    <path
       d="m 6662.6281,7187.5179 c -13.87,-6.9215 -121.8164,-110.7437 -285.8465,-274.8817 -258.709,-259.5556 -307.5563,-307.0172 -318.4111,-307.0172 -2.4122,0 -24.7251,34.113 -49.4502,75.6419 -24.122,41.0345 -61.5113,101.8447 -82.6182,134.4745 -236.3961,359.4227 -238.8083,362.389 -289.4647,366.8386 -59.0991,5.4383 -69.3508,-7.9103 -274.3884,-345.5798 -109.1524,-179.4641 -145.9385,-235.8247 -153.7781,-234.836 -5.4275,0.4944 -145.3355,116.6764 -310.5716,258.0724 -165.8393,141.396 -306.3502,260.5444 -312.3807,264.4995 -6.6336,4.4496 -23.519,7.4159 -42.8168,7.4159 -37.3891,0 -57.2898,-11.8654 -67.5418,-41.0345 -3.6183,-9.8878 -36.7861,-140.4072 -73.5722,-290.2078 -37.3891,-149.3063 -69.9539,-273.893 -72.9691,-276.8593 -7.2368,-5.9327 18.6946,-28.1804 -282.2283,249.6677 -140.5109,129.0362 -264.1365,240.7687 -276.1977,248.679 -37.9921,23.7308 -85.0302,14.8317 -106.74,-20.2701 -6.0306,-9.3934 -9.0458,-48.4503 -12.061,-136.9464 -7.8397,-251.151 -22.313,-449.8964 -33.168,-458.7954 -7.8396,-6.4271 -229.7625,86.0241 -697.1276,289.7134 -216.4954,93.9344 -232.7779,98.8784 -266.5487,75.642 -39.1983,-27.1916 -39.8014,-22.2477 33.7708,-270.9266 106.1371,-357.4452 133.2744,-453.3571 133.2744,-466.2113 0,-9.3935 -3.0153,-12.3598 -12.664,-12.3598 -18.6947,0 -384.747,48.9448 -661.5476,88.4961 -266.5487,38.0681 -272.5792,38.5625 -298.5105,9.3934 -16.2824,-17.7981 -16.2824,-48.9447 -0.6031,-66.7428 6.6336,-7.4159 173.6788,-118.654 370.8768,-247.1958 196.5948,-128.0475 358.8156,-235.3304 360.0217,-238.2968 1.2061,-2.4719 -3.0153,-6.9215 -9.6487,-9.8878 -6.0307,-2.472 -174.8851,-50.428 -375.7012,-106.7886 -200.2132,-55.8663 -370.2737,-105.3054 -378.1133,-110.2493 -7.8398,-4.4496 -19.9007,-16.8093 -26.5343,-26.6972 -12.6641,-18.2925 -12.6641,-18.7869 -1.8092,-39.0569 8.4428,-14.8318 24.7252,-28.6747 60.3051,-50.428 107.3434,-66.7428 373.289,-236.3191 458.3193,-291.691 124.8316,-82.069 159.8086,-107.283 159.8086,-115.1932 0,-3.4608 -123.0225,-95.912 -273.1824,-205.6669 -353.3881,-258.0725 -335.8996,-244.2295 -340.121,-268.9491 -4.2214,-25.7083 9.6489,-48.4503 36.1831,-59.327 16.8855,-7.4158 36.7861,-7.9102 185.1368,-4.9439 91.0608,1.9776 270.1671,4.4496 398.014,5.4383 127.847,1.4832 252.6787,3.4608 278.6098,4.9439 27.7405,1.9776 47.6411,0.9888 49.4503,-1.9775 2.4123,-2.472 -53.6715,-42.0233 -124.2287,-87.0129 -70.557,-45.4841 -130.862,-85.5298 -134.4803,-88.4961 -3.0153,-3.4608 -120.0074,-79.5971 -259.3124,-169.5764 -388.3651,-250.6565 -401.0291,-260.0499 -401.0291,-298.6125 0,-23.7308 22.9159,-46.9672 54.2746,-54.383 30.1525,-7.4159 106.7401,5.9326 473.3955,83.0577 149.5568,31.1467 298.5105,61.799 331.6783,68.2261 33.1678,6.4271 91.0608,18.2925 128.4499,26.2027 47.6412,10.8766 67.5418,13.3486 67.5418,8.8991 0,-3.4608 -48.8471,-64.2709 -108.5492,-135.4633 -59.7022,-71.6868 -108.5493,-131.0138 -108.5493,-132.497 0,-1.4831 -100.7096,-123.1035 -224.3352,-270.4322 -133.2743,-159.6885 -225.5414,-274.3873 -228.5565,-284.7695 -9.6488,-34.113 24.7251,-69.7092 66.3357,-69.7092 14.4731,0 32.5648,4.9439 49.4502,13.8429 14.4732,7.9103 192.3734,110.2494 394.3957,227.4202 644.6621,373.2656 739.3413,427.1543 742.9595,424.1879 1.8092,-1.4831 -25.9311,-90.968 -61.5112,-199.2398 -92.2669,-279.8256 -145.9385,-446.4356 -150.7629,-464.7281 -8.4426,-34.113 26.5342,-65.754 72.3661,-65.754 27.7405,0 22.313,-3.4608 245.442,145.8455 358.2127,239.2855 458.3194,305.0396 461.3345,302.5676 3.6185,-2.9663 4.2214,-12.8542 20.5039,-203.6893 22.3128,-266.4771 21.1067,-260.05 63.3203,-276.8593 35.58,-13.843 54.2746,-6.9215 145.3355,53.8887 45.8318,30.1579 98.2973,64.2709 116.3888,76.1363 18.0916,11.371 137.4959,89.9793 265.3428,174.0258 183.9306,121.6204 233.3809,151.7783 239.4114,146.8343 3.6182,-2.9663 37.3891,-50.4279 74.1754,-104.811 37.3892,-54.3831 73.5723,-106.7886 81.4119,-116.182 7.8398,-9.3934 72.9694,-102.8335 144.7325,-207.6445 71.16,-104.811 136.2896,-195.2847 144.1293,-201.7117 18.6945,-15.3262 56.0837,-19.2813 80.8088,-8.8991 10.8551,4.4495 24.7252,17.3037 32.5649,29.1691 7.2365,11.371 63.3204,146.3399 125.4347,300.0957 89.2516,222.9706 113.9768,279.3313 122.4194,279.3313 9.6489,0 65.7327,-33.6187 346.7547,-208.6333 63.3204,-39.5513 122.4194,-72.6756 134.4805,-75.6419 28.3434,-6.4271 63.3204,2.472 78.9997,20.27 9.0458,9.8879 23.5191,72.1812 65.7326,279.3313 29.5496,146.3399 53.6717,268.4546 53.6717,270.4322 0,11.8654 -8.4428,17.3037 517.4181,-308.006 151.3661,-93.9344 320.8236,-199.2398 376.9073,-233.8472 98.2974,-61.3045 101.3127,-62.7877 131.4652,-62.7877 27.1373,0 33.1679,1.9775 51.2594,16.8093 16.2824,13.3486 20.5037,20.7644 20.5037,36.585 0,14.8317 -66.9385,150.7894 -267.7548,545.3139 -147.1446,289.2191 -265.9457,527.5158 -263.5335,529.4934 2.4121,1.9776 317.8081,-55.3719 701.9521,-127.0586 384.1437,-72.1812 707.9825,-131.0138 719.4404,-131.0138 16.2825,0 26.5342,3.9551 41.6106,16.3149 26.5342,21.7532 32.5648,46.4728 17.4884,69.7092 -7.2366,10.3822 -115.1828,90.9681 -273.7854,203.195 -144.1293,102.8334 -266.5487,190.8351 -271.3731,195.2846 -4.8245,4.944 -56.6869,42.5177 -114.5798,84.0466 -57.893,41.0345 -106.137,76.6307 -107.3433,78.6083 -0.603,1.9775 338.9151,4.9439 754.4176,6.4271 692.9062,2.4719 758.0358,3.4607 777.9365,11.371 22.313,8.4046 40.4044,32.1354 40.4044,52.8999 0,17.3037 -21.7098,42.5177 -43.4197,50.9223 -10.8548,3.9551 -228.5564,59.8214 -484.2503,123.5979 -255.0908,63.7765 -473.9986,119.6428 -485.4566,123.5979 -11.4579,3.9551 -111.5645,29.6635 -221.923,57.3494 -110.3583,28.1804 -199.6099,52.4055 -199.0069,54.8775 1.206,2.472 217.7015,82.069 481.2351,176.9922 263.5335,94.9232 486.0595,176.0034 494.5023,179.9585 8.4427,3.9552 65.7326,25.214 126.6407,46.9672 125.4348,44.9897 144.7326,56.8551 144.7326,89.4849 0,25.7084 -9.0459,41.0345 -30.7558,51.4167 -10.2517,4.944 -165.8391,34.1131 -360.0217,67.7317 -188.1522,32.1354 -355.1974,61.7989 -372.0829,65.7541 -16.2823,4.4495 -96.4882,18.7869 -177.9002,32.6298 -170.6635,29.1691 -168.8544,28.6747 -168.8544,35.1018 0,2.9664 65.7326,72.6756 146.5416,155.7334 80.2057,82.5634 199.007,204.6781 263.5335,270.9266 130.8622,134.4745 140.511,149.3062 122.4195,179.4641 -7.2366,12.3598 -19.2977,22.2476 -33.771,28.1803 l -23.519,8.8991 -253.8847,-29.6635 c -139.9079,-16.3149 -325.0447,-38.0682 -411.2811,-47.956 -86.2365,-9.8878 -164.0302,-19.2813 -173.0759,-20.7644 -11.458,-1.9776 -16.8853,-0.4944 -16.8853,3.4607 0,6.4271 33.1678,82.069 211.671,486.9757 53.0686,119.6428 95.8852,222.4762 95.8852,228.9033 0,15.3262 -15.0763,38.5626 -31.3586,47.4616 -16.8856,9.8879 -54.2747,9.8879 -77.1908,0.4944 -9.6487,-3.9551 -170.6634,-88.9905 -358.2125,-188.8576 -431.1819,-229.8921 -462.5406,-246.207 -473.3954,-246.207 -9.6489,0 -18.6946,28.1803 -150.763,468.1889 -29.5494,97.3951 -57.8929,182.4305 -63.3203,189.3519 -9.0458,10.8767 -50.0533,32.1355 -62.1144,32.1355 -2.4122,0 -14.4733,-4.9439 -26.5343,-11.371 z"
       id="path6"
       inkscape:connector-curvature="0"
       style="fill:#ee7623;fill-opacity:1" />
    <flowRoot
       xml:space="preserve"
       id="flowRoot4140"
       style="font-style:normal;font-weight:normal;font-size:250px;line-height:125%;font-family:sans-serif;letter-spacing:0px;word-spacing:0px;fill:#ffffff;fill-opacity:1;stroke:none;stroke-width:1px;stroke-linecap:butt;stroke-linejoin:miter;stroke-opacity:1"
       transform="matrix(8,0,0,-8,-222.22222,10230)"><flowRegion
         id="flowRegion4142"><rect
           id="rect4144"
           width="722.22223"
           height="355.55554"
           x="411.11111"
           y="455.41666"
           style="font-size:250px;fill:#ffffff;fill-opacity:1" /></flowRegion><flowPara
         id="flowPara4146">Beta</flowPara></flowRoot>  </g>
</svg>
